<svg width="76" height="86" viewBox="0 0 76 86" fill="none" xmlns="http://www.w3.org/2000/svg">
<path d="M34.7654 16.5854L35.9144 33.0995C36.5331 41.9906 43.6088 49.0663 52.4999 49.685L69.014 50.834L52.4999 51.9831C43.6088 52.6017 36.5331 59.6775 35.9144 68.5685L34.7654 85.0827L33.6163 68.5685C32.9977 59.6775 25.9219 52.6017 17.0309 51.9831L0.516724 50.834L17.0309 49.685C25.9219 49.0663 32.9977 41.9906 33.6163 33.0995L34.7654 16.5854Z" fill="#F7D0B9"/>
<path d="M59.7073 0.950134L60.1642 7.51695C60.4993 12.3329 64.332 16.1656 69.148 16.5007L75.7148 16.9577L69.148 17.4146C64.332 17.7497 60.4993 21.5824 60.1642 26.3984L59.7073 32.9652L59.2504 26.3984C58.9153 21.5824 55.0826 17.7497 50.2666 17.4146L43.6998 16.9577L50.2666 16.5007C55.0826 16.1656 58.9153 12.3329 59.2504 7.51695L59.7073 0.950134Z" fill="#F7D0B9"/>
</svg>
